Coordinates
version=1
nRows=16
nColumns=30
inDegrees=yes

Units are S.I. units (second, meters, Newtons, ...)
Angles are in degrees.

endheader
time	floatyaw	floatroll	floatpitch	floatx	floaty	floatz	pro_sup_l	deviation_l	flexion_l	cmc_flexion_l	cmc_abduction_l	mp_flexion_l	ip_flexion_l	2mcp_flexion_l	2mcp_abduction_l	2pm_flexion_l	2md_flexion_l	3mcp_flexion_l	3mcp_abduction_l	3pm_flexion_l	3md_flexion_l	4mcp_flexion_l	4mcp_abduction_l	4pm_flexion_l	4md_flexion_l	5mcp_flexion_l	5mcp_abduction_l	5pm_flexion_l	5md_flexion_l
0.005000	-1.782892	-2.032873	94.941017	0.173674	-0.286423	0.193984	118.506618	20.266597	28.224516	8.404619	33.588770	-18.166733	-35.353247	47.453835	9.682227	43.875223	49.363653	55.314448	7.014062	50.565130	59.596906	53.442221	-6.624417	71.387437	57.437177	28.953826	-13.147622	73.165459	58.170412
0.015000	-1.782892	-2.032873	94.941017	0.173199	-0.285353	0.193802	118.582192	20.101516	27.497804	9.904893	34.502060	-18.507260	-38.992016	47.759966	9.834228	44.311083	50.733026	55.389352	6.990371	51.754829	61.009468	53.368919	-6.673262	72.735935	58.638056	28.754451	-13.142479	74.303520	58.957625
0.025000	-1.782892	-2.032873	94.941017	0.172651	-0.284308	0.193547	118.612600	19.907728	26.783665	11.186116	35.283792	-18.689969	-42.290350	48.044145	9.992068	44.669585	52.050796	55.464030	6.977106	52.861161	62.315032	53.331905	-6.716168	74.036393	59.770641	28.575696	-13.134029	75.437605	59.704249
0.035000	-1.782892	-2.032873	94.941017	0.172057	-0.283364	0.193188	118.555412	19.663485	26.157825	12.192609	35.893779	-18.723856	-45.082875	48.276781	10.138525	44.937016	53.268179	55.524154	6.974709	53.834449	63.491861	53.316953	-6.750422	75.237817	60.811033	28.404781	-13.123764	76.509478	60.387883
0.045000	-1.782892	-2.032873	94.941017	0.171445	-0.282584	0.192725	118.394106	19.358987	25.677842	12.916745	36.336752	-18.637498	-47.286908	48.433887	10.261503	45.114261	54.344651	55.558781	6.982911	54.638560	64.538730	53.303510	-6.775468	76.298149	61.747004	28.225875	-13.116354	77.465507	60.997381
0.055000	-1.782892	-2.032873	94.941017	0.170838	-0.282005	0.192195	118.141885	18.999358	25.370411	13.386444	36.645171	-18.471467	-48.895336	48.504918	10.353781	45.211701	55.250093	55.565676	7.000467	55.252966	65.471243	53.273366	-6.792552	77.186274	62.576124	28.028023	-13.117918	78.264681	61.530413
0.065000	-1.782892	-2.032873	94.941017	0.170253	-0.281630	0.191659	117.836500	18.603642	25.225571	13.649597	36.859950	-18.268748	-49.959781	48.497098	10.412594	45.242857	55.968205	55.552612	7.025069	55.675102	66.315006	53.217317	-6.804005	77.886599	63.303255	27.810093	-13.132846	78.885805	61.989427
0.075000	-1.782892	-2.032873	94.941017	0.169699	-0.281435	0.191186	117.528229	18.199994	25.200221	13.760856	37.017189	-18.065419	-50.572777	48.434602	10.439555	45.220361	56.498207	55.535028	7.053717	55.922099	67.098734	53.137907	-6.812505	78.404888	63.938519	27.581371	-13.160918	79.332200	62.378516
0.085000	-1.782892	-2.032873	94.941017	0.169181	-0.281371	0.190835	117.264815	17.818320	25.232050	13.772775	37.143015	-17.884475	-50.851055	48.351700	10.440224	45.156231	56.852858	55.530880	7.083370	56.029380	67.847913	53.047442	-6.820456	78.770242	64.494910	27.357881	-13.196639	79.631048	62.702163
0.095000	-1.782892	-2.032873	94.941017	0.168705	-0.281384	0.190637	117.078072	17.482750	25.260628	13.730945	37.254038	-17.734987	-50.918628	48.281573	10.422777	45.065599	57.054060	55.554238	7.111527	56.045232	68.578089	52.962616	-6.829451	79.029386	64.984345	27.156390	-13.231560	79.826579	62.965013
0.105000	-1.782892	-2.032873	94.941017	0.168281	-0.281428	0.190591	116.976365	17.206431	25.247509	13.671689	37.359944	-17.616152	-50.889322	48.245404	10.395973	44.970268	57.128904	55.610044	7.136496	56.022870	69.288560	52.898635	-6.839931	79.234600	65.413033	26.989099	-13.258410	79.969577	63.171502
0.115000	-1.782892	-2.032873	94.941017	0.167926	-0.281474	0.190665	116.945231	16.990077	25.186212	13.620658	37.465768	-17.522964	-50.851009	48.246918	10.367146	44.897503	57.107599	55.692462	7.157446	56.011569	69.960684	52.865037	-6.851197	79.430368	65.779482	26.861091	-13.274514	80.106542	63.325508
0.125000	-1.782892	-2.032873	94.941017	0.167658	-0.281514	0.190807	116.955339	16.824116	25.097705	13.591576	37.572820	-17.450019	-50.855201	48.274782	10.340866	44.871946	57.022433	55.787659	7.174366	56.047495	70.565270	52.863579	-6.861863	79.643739	66.078197	26.770208	-13.282394	80.270322	63.431459
0.135000	-1.782892	-2.032873	94.941017	0.167486	-0.281546	0.190965	116.974211	16.693042	25.014660	13.585868	37.678530	-17.392491	-50.914966	48.310892	10.318600	44.904096	56.905987	55.879398	7.187946	56.145890	71.077874	52.887696	-6.870575	79.881101	66.308021	26.707881	-13.287368	80.473287	63.497317
0.145000	-1.782892	-2.032873	94.941017	0.167402	-0.281574	0.191100	116.976972	16.580326	24.963439	13.594677	37.776642	-17.345852	-51.012006	48.339622	10.299358	44.983187	56.787711	55.954634	7.199271	56.298263	71.493738	52.923712	-6.876656	80.131594	66.479512	26.660504	-13.293921	80.705062	63.537103
0.155000	-1.782892	-2.032873	94.941017	0.167382	-0.281602	0.191193	116.952473	16.472640	24.952888	13.603723	37.859088	-17.306052	-51.111048	48.353485	10.280999	45.080730	56.689369	56.007126	7.209396	56.477426	71.832747	52.954645	-6.880385	80.375222	66.615563	26.612526	-13.303243	80.937242	63.569702
